# AST/ASF file generated using VICON BodyLanguage
# -----------------------------------------------
:version 1.10
:name VICON
:units
  mass 1.0
  length 0.45
  angle deg
:documentation
   .ast/.asf automatically generated from VICON data using
   VICON BodyBuilder and BodyLanguage model FoxedUp or BRILLIANT.MOD
:root
   order TX TY TZ RX RY RZ
   axis XYZ
   position 0 0 0  
   orientation 0 0 0 
:bonedata
  begin
     id 1 
     name lhipjoint
     direction 0.693937 -0.600361 0.397515 
     length 2.37164 
     axis 0 0 0  XYZ
  end
  begin
     id 2 
     name lfemur
     direction 0.34202 -0.939693 0  
     length 6.18497  
     axis 0 0 20  XYZ
    dof rx ry rz
    limits (-160.0 20.0)
           (-70.0 70.0)
           (-60.0 70.0)
  end
  begin
     id 3 
     name ltibia
     direction 0.34202 -0.939693 0   
     length 6.91601   
     axis 0 0 20   XYZ
    dof rx
    limits (-10.0 170.0)
  end
  begin
     id 4 
     name lfoot
     direction 0.0978718 -0.2689 0.958182   
     length 1.81453   
     axis -90 7.62852e-016 20   XYZ
    dof rx rz
    limits (-45.0 90.0)
           (-70.0 20.0)
  end
  begin
     id 5 
     name ltoes
     direction 1.53569e-011 -4.21951e-011 1   
     length 0.912052   
     axis -90 7.62852e-016 20   XYZ
    dof rx
    limits (-90.0 20.0)
  end
  begin
     id 6 
     name rhipjoint
     direction -0.643996 -0.637876 0.422354   
     length 2.23216  
     axis 0 0 0  XYZ 
  end
  begin
     id 7 
     name rfemur
     direction -0.34202 -0.939693 0   
     length 6.15404   
     axis 0 0 -20   XYZ
    dof rx ry rz
    limits (-160.0 20.0)
           (-70.0 70.0)
           (-70.0 60.0)
  end
  begin
     id 8 
     name rtibia
     direction -0.34202 -0.939693 0   
     length 6.86744   
     axis 0 0 -20   XYZ
    dof rx
    limits (-10.0 170.0)
 end
 begin
     id 9 
     name rfoot
     direction -0.118701 -0.326127 0.937844   
     length 1.9243  
     axis -90 -7.62852e-016 -20   XYZ
    dof rx rz
    limits (-45.0 90.0)
           (-20.0 70.0)
  end
  begin
     id 10 
     name rtoes
     direction -1.5356e-011 -4.2181e-011 1   
     length 0.958865   
     axis -90 -7.62852e-016 -20   XYZ
    dof rx
    limits (-90.0 20.0)
  end
  begin
     id 11 
     name lowerback
     direction 0.0310826 0.968686 -0.246334   
     length 2.00021   
     axis 0 0 0   XYZ
    dof rx ry rz
    limits (-20.0 45.0)
           (-30.0 30.0)
           (-30.0 30.0)
  end
  begin
     id 12 
     name upperback
     direction -0.0152834 0.999474 -0.0286152   
     length 2.03728   
     axis 0 0 0   XYZ
    dof rx ry rz
    limits (-20.0 45.0)
           (-30.0 30.0)
           (-30.0 30.0)
  end
  begin
     id 13 
     name thorax
     direction -0.0323701 0.996236 0.0804149   
     length 2.16   
     axis 0 0 0   XYZ
    dof rx ry rz
    limits (-20.0 45.0)
           (-30.0 30.0)
           (-30.0 30.0)
  end
  begin
     id 14 
     name lowerneck
     direction 0.0307935 0.982251 0.185027   
     length 1.43558   
     axis 0 0 0   XYZ
    dof rx ry rz
    limits (-20.0 45.0)
           (-30.0 30.0)
           (-30.0 30.0)
  end
  begin
     id 15 
     name upperneck
     direction -0.0927153 0.994775 0.0427454   
     length 1.44603   
     axis 0 0 0   XYZ
    dof rx ry rz
    limits (-20.0 45.0)
           (-30.0 30.0)
           (-30.0 30.0)
  end
  begin
     id 16
     name head
     direction -0.0341265 0.999406 -0.00472033  
     length 1.45931  
     axis 0 0 0   XYZ
    dof rx ry rz
    limits (-20.0 45.0)
           (-30.0 30.0)
           (-30.0 30.0)
  end
  begin
     id 17 
     name lclavicle
     direction 0.820755 0.555306 -0.134151  
     length 2.66075  
     axis 0 0 0   XYZ
    dof ry rz
    limits (-20.0 10.0)
           (0.0 20.0)
  end
  begin
     id 18 
     name lhumerus
     direction 1 -4.48971e-011 5.24853e-027   
     length 5.0546   
     axis -180 -30 -90   XYZ
    dof rx ry rz
    limits (-60.0 90.0)
           (-90.0 90.0)
           (-90.0 90.0)
  end
  begin
     id 19
     name lradius
     direction 1 -4.48971e-011 2.76575e-028   
     length 3.39013   
     axis -180 -30 -90   XYZ
    dof rx
    limits (-10.0 170.0)
  end
  begin
     id 20
     name lwrist
     direction 1 -4.48939e-011 -2.27826e-027   
     length 1.69507   
     axis 2.17013e-015 90 90   XYZ
    dof ry
    limits (-180.0 0.0)
 end
  begin
     id 21 
     name lhand
     direction 1 -4.49009e-011 -4.55652e-027   
     length 0.572425   
     axis 2.90745e-015 90 90   XYZ
    dof rx rz
    limits (-90.0 90.0)
           (-45.0 45.0)
  end
  begin
     id 22 
     name lfingers
     direction 1 -4.48955e-011 -9.11303e-027   
     length 0.461504   
     axis 5.81489e-015 90 90   XYZ
    dof rx
    limits (0.0 90.0)
  end
  begin
     id 23
     name lthumb
     direction 0.707107 -6.34929e-011 0.707107   
     length 0.66263   
     axis -90 45 2.85299e-015   XYZ
    dof rx rz
    limits (-45.0 45.0)
           (-45.0 45.0)
  end
  begin
     id 24 
     name rclavicle
     direction -0.754477 0.632921 -0.173712   
     length 2.73081  
     axis 0 0 0   XYZ 
    dof ry rz
    limits (-10.0 20.0)
           (-20.0 0.0)
  end
  begin
     id 25 
     name rhumerus
     direction -1 -4.48969e-011 5.1496e-027  
     length 5.0701   
     axis -180 30 90   XYZ
    dof rx ry rz
    limits (-90.0 60.0)
           (-90.0 90.0)
           (-90.0 90.0)
  end
  begin
     id 26 
     name rradius
     direction -1 -4.48967e-011 -7.15624e-028   
     length 3.14957   
     axis -180 30 90   XYZ
    dof rx
    limits (-10.0 170.0)
  end
  begin
     id 27 
     name rwrist
     direction -1 -4.48938e-011 -2.27826e-027   
     length 1.57479   
     axis 2.17013e-015 -90 -90   XYZ
    dof ry
    limits (-180.0 0.0)
  end
  begin
     id 28
     name rhand
     direction -1 -4.49008e-011 -4.55652e-027   
     length 0.718191   
     axis 2.90745e-015 -90 -90   XYZ
    dof rx rz
    limits (-90.0 90.0)
           (-45.0 45.0)
  end
  begin
     id 29
     name rfingers
     direction -1 -4.48953e-011 -9.11303e-027   
     length 0.579024   
     axis 5.81489e-015 -90 -90   XYZ
    dof rx
    limits (0.0 90.0)
  end
  begin
     id 30
     name rthumb
     direction -0.707107 -6.34937e-011 0.707107   
     length 0.831366   
     axis -90 -45 -2.85299e-015   XYZ
    dof rx rz
    limits (-45.0 45.0)
           (-45.0 45.0)
  end
:hierarchy
  begin
    root lhipjoint rhipjoint lowerback
    lhipjoint lfemur
    lfemur ltibia
    ltibia lfoot
    lfoot ltoes
    rhipjoint rfemur
    rfemur rtibia
    rtibia rfoot
    rfoot rtoes
    lowerback upperback
    upperback thorax
    thorax lowerneck lclavicle rclavicle
    lowerneck upperneck
    upperneck head
    lclavicle lhumerus
    lhumerus lradius
    lradius lwrist
    lwrist lhand lthumb
    lhand lfingers
    rclavicle rhumerus
    rhumerus rradius
    rradius rwrist
    rwrist rhand rthumb
    rhand rfingers
  end

#!OML:ASF H:\Male1\Project 1\Capture day 1\Session 1\Male1.ASF
:FULLY-SPECIFIED
:DEGREES
98
root 8.18257 14.1839 4.52483 183.593 5.31185 -178.407
lowerback 23.6431 0.326925 -0.463011
upperback 5.71678 1.35125 -1.08385
thorax -6.85601 1.12328 -1.36104
lowerneck -5.1949 6.47165 10.48
upperneck -8.54911 8.2979 -10.6181
head -0.785344 4.28221 -4.77631
rclavicle -5.56597e-015 2.78299e-015
rhumerus -16.3369 9.00235 -20.9935
rradius 116.392
rwrist -1.73114
rhand -28.4367 34.6348
rfingers 7.12502
rthumb -1.80768 4.66268
lclavicle -5.56597e-015 2.78299e-015
lhumerus -10.868 -2.47268 18.88
lradius 115.8
lwrist -12.0614
lhand -30.4733 -25.2981
lfingers 7.12502
lthumb -3.77457 4.64825
rfemur -33.6924 -1.82882 19.6183
rtibia 59.6395
rfoot -27.672 -22.0685
rtoes -32.4362
lfemur -33.3942 0.487947 -13.3242
ltibia 59.2523
lfoot -26.3775 13.9982
ltoes -26.4563
99
root 8.18008 14.2113 4.52166 183.624 5.35225 -178.433
lowerback 23.5478 0.33202 -0.359975
upperback 5.72622 1.38023 -1.09354
thorax -6.7945 1.13528 -1.43566
lowerneck -5.10885 6.50967 10.5152
upperneck -8.6188 8.35064 -10.7159
head -0.807216 4.31267 -4.81439
rclavicle -1.94809e-014 0
rhumerus -15.8655 10.2949 -19.7023
rradius 116.321
rwrist -1.12485
rhand -27.3794 35.104
rfingers 7.12502
rthumb -0.786536 5.1257
lclavicle -1.94809e-014 0
lhumerus -10.7223 -4.40992 18.017
lradius 115.426
lwrist -12.4321
lhand -29.277 -25.6167
lfingers 7.12502
lthumb -2.61921 4.34699
rfemur -33.4788 -1.83595 19.5624
rtibia 59.1943
rfoot -27.6026 -21.8646
rtoes -32.0429
lfemur -33.1279 0.500039 -13.3639
ltibia 58.7517
lfoot -26.191 13.9364
ltoes -26.3095
100
root 8.17626 14.2382 4.51807 183.663 5.43295 -178.505
lowerback 23.4379 0.350796 -0.276359
upperback 5.73401 1.41991 -1.1255
thorax -6.72667 1.15249 -1.52592
lowerneck -4.99772 6.52913 10.5355
upperneck -8.68012 8.38027 -10.7936
head -0.83462 4.33123 -4.84563
rclavicle 2.60408e-014 -1.55052e-014
rhumerus -15.3049 10.6353 -18.9836
rradius 116.443
rwrist -1.16437
rhand -26.3023 35.2614
rfingers 7.12502
rthumb 0.253822 5.28176
lclavicle 2.60408e-014 -1.55052e-014
lhumerus -10.6368 -5.32268 18.0445
lradius 115.154
lwrist -12.6489
lhand -28.0823 -25.9333
lfingers 7.12502
lthumb -1.46544 4.0414
rfemur -33.2854 -1.80519 19.4476
rtibia 58.7586
rfoot -27.5467 -21.6466
rtoes -31.6018
lfemur -32.8582 0.53468 -13.4619
ltibia 58.2409
lfoot -25.9957 13.9034
ltoes -26.2699
101
root 8.1717 14.2651 4.51351 183.705 5.54378 -178.615
lowerback 23.3154 0.387353 -0.229801
upperback 5.7372 1.47215 -1.16275
thorax -6.65743 1.17569 -1.60375
lowerneck -4.8403 6.52024 10.5257
upperneck -8.75373 8.37605 -10.8464
head -0.879069 4.33369 -4.86794
rclavicle 2.98177e-015 -3.57812e-015
rhumerus -14.7347 10.0242 -19.0279
rradius 116.759
rwrist -1.88568
rhand -25.3183 35.0708
rfingers 7.12502
rthumb 1.20413 5.09449
lclavicle 2.98177e-015 -3.57812e-015
lhumerus -10.6454 -5.08328 19.1448
lradius 114.988
lwrist -12.5733
lhand -27.0626 -26.1354
lfingers 7.12502
lthumb -0.480581 3.84377
rfemur -33.0978 -1.74296 19.2867
rtibia 58.325
rfoot -27.5099 -21.4305
rtoes -31.1279
lfemur -32.5737 0.57202 -13.6056
ltibia 57.7122
lfoot -25.8076 13.8931
ltoes -26.2668
102
root 8.16709 14.2925 4.50772 183.75 5.66826 -178.742
lowerback 23.1774 0.430423 -0.218572
upperback 5.73439 1.52261 -1.20114
thorax -6.58728 1.19771 -1.66146
lowerneck -4.66203 6.51963 10.5333
upperneck -8.7914 8.38202 -10.88
head -0.915579 4.33881 -4.88654
rclavicle 3.18055e-015 7.95139e-016
rhumerus -14.1968 8.55753 -20.0074
rradius 117.279
rwrist -3.14707
rhand -24.5971 34.5818
rfingers 7.12502
rthumb 1.90073 4.61047
lclavicle 3.18055e-015 7.95139e-016
lhumerus -10.7552 -3.70104 21.33
lradius 114.994
lwrist -12.1019
lhand -26.4549 -26.1001
lfingers 7.12502
lthumb 0.106349 3.87962
rfemur -32.9058 -1.65467 19.1064
rtibia 57.8838
rfoot -27.4812 -21.2325
rtoes -30.6408
lfemur -32.2749 0.598665 -13.7686
ltibia 57.1658
lfoot -25.642 13.8945
ltoes -26.2324
103
root 8.16324 14.3204 4.50104 183.802 5.78016 -178.851
lowerback 23.0216 0.462793 -0.222868
upperback 5.7272 1.5542 -1.23471
thorax -6.51351 1.21013 -1.69899
lowerneck -4.47193 6.51416 10.5501
upperneck -8.81232 8.38205 -10.8742
head -0.951562 4.33895 -4.89484
rclavicle 3.10104e-014 -1.19271e-014
rhumerus -13.6986 6.38667 -22.045
rradius 117.993
rwrist -4.7085
rhand -24.3167 33.9376
rfingers 7.12502
rthumb 2.17153 3.96892
lclavicle 3.10104e-014 -1.19271e-014
lhumerus -10.9459 -1.28991 24.5251
lradius 115.302
lwrist -11.1839
lhand -26.2563 -25.8042
lfingers 7.12502
lthumb 0.298239 4.17533
rfemur -32.7033 -1.55376 18.9492
rtibia 57.4268
rfoot -27.437 -21.0755
rtoes -30.1955
lfemur -31.977 0.613103 -13.9087
ltibia 56.6123
lfoot -25.5058 13.8772
ltoes -26.1119
